<svg version="1.1" id="Layer_1" xmlns="http://www.w3.org/2000/svg" xmlns:xlink="http://www.w3.org/1999/xlink" x="0px" y="0px" viewBox="0 0 500 500" style="width: 188px;" xml:space="preserve" data-imageid="social-media-1-49" imageName="Social Media 1" class="illustrations_image">
<style type="text/css">
	.st0_social-media-1-49{fill:#68E1FD;}
	.st1_social-media-1-49{fill:#231F20;}
	.st2_social-media-1-49{fill:#FFFFFF;}
	.st3_social-media-1-49{fill:#D1D3D4;}
</style>
<g id="Character_social-media-1-49">
	<path class="st0_social-media-1-49 targetColor" d="M246.8,251.1l-100.5,18.4c0,0-32.6-46.9-33.6-46c-10,8.4-22.9,18.8-22.9,18.8s9.5,63.2,34.3,75.8&#10;&#9;&#9;s102-18.4,102-18.4L246.8,251.1z" style="fill: rgb(104, 225, 253);"/>
	<path class="st0_social-media-1-49 targetColor" d="M329.1,254.8L382,286l16.8-85.8l26,9.8c0,0,5,154.4-23.4,150.7S305,316.4,305,316.4L329.1,254.8z" style="fill: rgb(104, 225, 253);"/>
	<path class="st0_social-media-1-49 targetColor" d="M246.8,251.1c0,0-34.3-1.8-58.9,60.8s-41.4,103-41.4,103l155.4,15.5c0,0,18.8-70,26.9-121.9&#10;&#9;&#9;c4.1-26.3,5.5-48,0.3-53.6C313.7,238.1,246.8,251.1,246.8,251.1z" style="fill: rgb(104, 225, 253);"/>
	<path class="st1_social-media-1-49" d="M306.2,414.6H306c-0.4-0.1-0.6-0.5-0.5-0.9l35.6-121.1c0.1-0.4,0.5-0.6,0.9-0.5c0.4,0.1,0.6,0.5,0.5,0.9&#10;&#9;&#9;c0,0,0,0,0,0l-35.6,121.1C306.8,414.4,306.5,414.6,306.2,414.6z"/>
	<path class="st1_social-media-1-49" d="M150.6,405.8c-0.1,0-0.2,0-0.3,0c-0.4-0.1-0.6-0.6-0.4-0.9L199.7,278c0.2-0.4,0.6-0.5,1-0.3&#10;&#9;&#9;c0.3,0.2,0.4,0.5,0.4,0.8l-49.7,126.8C151.2,405.6,150.9,405.7,150.6,405.8z"/>
	<path class="st0_social-media-1-49 targetColor" d="M227,241.7c0-0.9,0-1.7,0-2.5c0.1-2.9,0.1-5.9,1.2-8.6c1.3-3.2,4-5.7,6.8-7.9c11.3-8.8,25.3-13.7,39.6-14.8&#10;&#9;&#9;c14.3-0.9,28.7,1.5,41.9,7c6,2.4,11.9,5.4,16.8,9.7c9.2,8.2,13.7,21.2,12.3,33.4c-0.5,4.2-0.7,11-2.4,14.9&#10;&#9;&#9;c-3,6.8-11.8,6.6-17.8,8.3s-10.7,6.1-16.2,8.9c-5,2.5-11.8,1.9-17.3,2.4c-13.4,1-28.1,0.5-39.2-7.1c-7.6-5.2-8.9-15-13.1-22.5&#10;&#9;&#9;c-2.4-4.2-5.6-5.4-8.7-8.5S227.1,246.1,227,241.7z" style="fill: rgb(104, 225, 253);"/>
	<path class="st1_social-media-1-49" d="M260,294.7c1.4,4.5,4.6,8.7,9.3,10.2c4.2,1.4,9,0.4,13-1.8c3.8-2.3,7.2-5.4,9.8-9c3.9-4.9,7.1-10.2,9.7-15.8&#10;&#9;&#9;c1.8-3.6,2.9-7.5,3.2-11.5c0.1-4-1.2-8.1-4.2-10.7c-7.9-6.8-29.3-6.7-36.6,2.1C257.2,266.3,257.1,285.5,260,294.7z"/>
	<path class="st1_social-media-1-49" d="M273.4,306.2c-1.5,0-3-0.2-4.4-0.7c-4.5-1.5-8.1-5.4-9.7-10.6l0,0c-2.9-9.3-2.7-28.9,4.3-37.3&#10;&#9;&#9;c3.2-3.9,9.4-6.4,16.8-7c8.4-0.7,16.6,1.2,20.8,4.9c3.1,2.9,4.7,7,4.5,11.3c-0.1,4.4-1.8,8.6-3.3,11.8c-2.6,5.7-5.9,11-9.8,15.9&#10;&#9;&#9;c-3.5,4.4-6.6,7.3-10.1,9.2C279.8,305.3,276.6,306.2,273.4,306.2z M260.6,294.5c1.5,4.8,4.8,8.4,8.8,9.7c3.7,1.2,8.3,0.5,12.4-1.8&#10;&#9;&#9;c3.3-1.8,6.2-4.6,9.6-8.8c3.8-4.8,7-10.1,9.6-15.6c1.4-3,3-7.1,3.1-11.3c0.3-3.8-1.2-7.5-4-10.1c-4-3.4-11.7-5.2-19.7-4.5&#10;&#9;&#9;c-7.1,0.6-12.8,3-15.8,6.5C257.9,266.5,257.8,285.5,260.6,294.5L260.6,294.5z"/>
	<path class="st2_social-media-1-49" d="M327.5,227c3.8-6.4,8.1-12.5,11-19.3s4.4-14.4,2.3-21.2c-0.7-2.8-2.4-5.3-4.8-7c-2.5-1.7-5.8-1.6-8.4,0.1&#10;&#9;&#9;c-0.9-3.2-3.3-5.8-5.8-8c-6-5.4-13.3-9.1-21.3-10.5c-8.2-1.4-16.7,0.2-23.7,4.6c-2.9,1.9-5.5,4.2-8.5,5.8c-5.2,2.7-11.4,2.7-16.6,0&#10;&#9;&#9;c-2.1,10.6,1.6,21.4,8.1,29.8s15.6,14.5,25.1,19.4c5,2.6,10.3,4.9,16,5.7s11.9-0.2,16.6-3.8"/>
	<path class="st1_social-media-1-49" d="M327.5,227.7c-0.1,0-0.3,0-0.4-0.1c-0.3-0.2-0.5-0.7-0.2-1c1-1.7,2-3.3,3.1-5c3-4.5,5.6-9.3,7.9-14.2&#10;&#9;&#9;c2.3-5.3,4.6-13.3,2.3-20.7c-0.7-2.6-2.3-5-4.5-6.6c-2.3-1.5-5.2-1.5-7.5,0c-0.3,0.2-0.8,0.2-1-0.1c-0.1-0.1-0.1-0.2-0.1-0.3&#10;&#9;&#9;c-1-3.2-3.5-5.8-5.6-7.6c-5.9-5.3-13.1-8.9-20.9-10.3c-8-1.4-16.3,0.2-23.2,4.5c-1.1,0.7-2.2,1.5-3.2,2.3c-1.7,1.3-3.5,2.5-5.4,3.6&#10;&#9;&#9;c-5.1,2.6-11.1,2.7-16.4,0.4c-1.5,9.4,1.4,19.7,8.1,28.3c5.6,7.2,13.5,13.3,24.9,19.2c4.5,2.3,10,4.8,15.8,5.6&#10;&#9;&#9;c6.1,0.8,12-0.5,16.1-3.6c0.3-0.2,0.8-0.2,1,0.2c0.2,0.3,0.2,0.8-0.2,1l0,0c-4.4,3.3-10.7,4.7-17.1,3.9c-6-0.8-11.6-3.4-16.2-5.7&#10;&#9;&#9;c-11.5-6-19.6-12.2-25.3-19.6c-7.2-9.2-10.2-20.3-8.2-30.4c0-0.2,0.2-0.4,0.4-0.5c0.2-0.1,0.4-0.1,0.6,0c5,2.5,10.9,2.5,15.9,0&#10;&#9;&#9;c1.8-1,3.6-2.1,5.2-3.4c1-0.8,2.1-1.6,3.3-2.3c7.2-4.5,15.9-6.2,24.2-4.8c8.1,1.5,15.6,5.2,21.6,10.7c2.5,2,4.4,4.5,5.7,7.4&#10;&#9;&#9;c2.7-1.4,5.9-1.2,8.4,0.4c2.5,1.8,4.3,4.4,5.1,7.4c2.4,7.9,0.1,16.2-2.3,21.7c-2.3,5-5,9.8-8,14.4c-1,1.6-2,3.3-3,5&#10;&#9;&#9;C328.1,227.5,327.8,227.7,327.5,227.7z"/>
	<path class="st2_social-media-1-49" d="M272.8,245.8l-9.4,18.1c0,0-7.2,21.6,10.3,22.3s28.4-15.6,28.4-15.6l18.1-40.7c0,0-9.9-9.7,2.5-34.4&#10;&#9;&#9;c-15,1.8-30.1-0.3-44-6.2c0,0-16.9,25.8-19.2,38.8S272.8,245.8,272.8,245.8z"/>
	<path class="st1_social-media-1-49" d="M275,286.9h-1.2c-4.6-0.2-8-1.8-10.1-4.9c-4.7-6.8-1-18-0.9-18.4l9-17.4c-3.2-1.3-15-6.7-13-18.4&#10;&#9;&#9;c2.3-12.9,18.6-37.9,19.3-39c0.2-0.3,0.6-0.4,0.9-0.3c13.8,5.8,28.8,8,43.6,6.2c0.3,0,0.5,0.1,0.7,0.3c0.2,0.2,0.2,0.5,0.1,0.8&#10;&#9;&#9;c-6.2,12.5-6.6,21-5.8,25.9c0.8,5.3,3.2,7.7,3.2,7.7c0.2,0.2,0.3,0.5,0.1,0.8l-18.1,40.7C302.6,271.1,292,286.9,275,286.9z&#10;&#9;&#9; M279,190.2c-2.4,3.7-16.7,26.3-18.7,37.9c-2.1,12.2,12.6,17,12.8,17c0.2,0.1,0.4,0.2,0.5,0.4c0.1,0.2,0.1,0.4,0,0.6l-9.4,18.1&#10;&#9;&#9;c0,0-3.5,10.9,0.7,17c1.8,2.6,4.9,4.1,9,4.2c16.9,0.8,27.6-15.1,27.7-15.3l17.8-40.2c-1.7-2-8.3-12,2.1-33.7&#10;&#9;&#9;C307,197.8,292.4,195.7,279,190.2L279,190.2z"/>
	<path class="st2_social-media-1-49" d="M291.2,209.6c0,0-12.4,11.9-10.7,14.6s8.1,2.3,8.1,2.3"/>
	<path class="st1_social-media-1-49" d="M287.5,227.2c-2.1,0-6.2-0.3-7.6-2.7c-1.8-3,7.9-12.6,10.8-15.5c0.3-0.3,0.7-0.3,1,0s0.3,0.7,0,1&#10;&#9;&#9;c-5.8,5.5-11.4,12.4-10.6,13.7c1.2,1.9,5.8,2.1,7.5,1.9c0.4,0,0.7,0.3,0.8,0.6s-0.3,0.7-0.6,0.8&#10;&#9;&#9;C288.5,227.2,288.1,227.2,287.5,227.2z"/>
	<ellipse transform="matrix(0.1939 -0.981 0.981 0.1939 41.6166 467.9464)" class="st1_social-media-1-49" cx="305.6" cy="208.6" rx="3.8" ry="1.6"/>
	<ellipse transform="matrix(0.1788 -0.9839 0.9839 0.1788 29.4502 443.3488)" class="st1_social-media-1-49" cx="280.3" cy="204" rx="3.8" ry="1.6"/>
	<path class="st2_social-media-1-49" d="M312,220.4c2.2-2,4.8-3.6,7.7-4.7c1.5-0.7,3.1-0.9,4.8-0.7c1.2,0.3,2.4,1,3.2,2c2.6,2.8,3.9,6.6,3.4,10.4&#10;&#9;&#9;c-0.2,1.8-0.8,3.5-1.9,5c-1.8,2.3-4.3,3.9-7.1,4.6c-2.8,0.7-5.6,1.1-8.5,1.1"/>
	<path class="st1_social-media-1-49" d="M313.7,238.8c-0.4,0-0.7-0.3-0.7-0.7c0-0.4,0.3-0.7,0.7-0.8c2.8,0,5.6-0.4,8.3-1.1c2.6-0.7,5-2.2,6.7-4.3&#10;&#9;&#9;c0.9-1.4,1.5-3,1.7-4.6c0.5-3.6-0.7-7.2-3.2-9.8c-0.8-0.9-1.8-1.5-2.9-1.8c-1.5-0.2-3,0-4.4,0.6c-2.7,1.1-5.3,2.6-7.5,4.6&#10;&#9;&#9;c-0.3,0.3-0.7,0.3-1,0c-0.2-0.3-0.2-0.7,0.1-1c2.3-2.1,5-3.7,7.9-4.9c1.6-0.7,3.4-1,5.2-0.7c1.4,0.4,2.6,1.2,3.6,2.2&#10;&#9;&#9;c2.8,2.9,4.1,7,3.6,11c-0.2,1.9-0.9,3.7-2,5.3c-1.9,2.4-4.5,4.1-7.5,4.9c-2.8,0.7-5.7,1.1-8.6,1.2L313.7,238.8z"/>
	<path class="st1_social-media-1-49" d="M272.8,245.8c0,0,14.9,4.8,24.7,1.9c0,0-15.8,16.6-34.1,16.2L272.8,245.8z"/>
	<path class="st1_social-media-1-49" d="M264.2,264.6h-0.8c-0.4,0-0.7-0.3-0.7-0.7c0-0.1,0-0.2,0.1-0.3l9.4-18.1c0.2-0.3,0.5-0.5,0.9-0.4&#10;&#9;&#9;c0.1,0,14.8,4.7,24.3,1.9c0.3-0.1,0.7,0,0.8,0.3c0.2,0.3,0.1,0.6-0.1,0.9C297.5,248.9,282.3,264.6,264.2,264.6z M273.2,246.7&#10;&#9;&#9;l-8.6,16.5c13.7-0.2,26-10.1,30.5-14.2C286.5,250.4,275.8,247.4,273.2,246.7L273.2,246.7z"/>
	<path class="st1_social-media-1-49" d="M249,287.8c-0.3,0-0.6-0.2-0.7-0.6c-3.4-13-9.9-24.9-18.9-34.7c-0.3-0.3-0.3-0.7,0-1c0.3-0.3,0.7-0.3,1,0l0,0&#10;&#9;&#9;c9.2,10,15.9,22.2,19.3,35.4c0.1,0.4-0.2,0.8-0.6,0.9L249,287.8z"/>
	<path class="st1_social-media-1-49" d="M297.1,300.4c-0.2,0-0.3-0.1-0.5-0.2c-0.3-0.3-0.3-0.7-0.1-1c0.1-0.2,15.4-18.8,43.3-27.6&#10;&#9;&#9;c0.4-0.1,0.8,0.1,0.9,0.5c0.1,0.4-0.1,0.8-0.5,0.9c-27.5,8.7-42.5,27-42.6,27.2C297.5,300.3,297.3,300.4,297.1,300.4z"/>
	<path class="st1_social-media-1-49" d="M285.4,212.2c-0.2,0-0.4,0-0.7-0.1l0,0l-15.8-2.5c-2.3-0.4-3.8-2.5-3.5-4.8l1.1-6.8c0.4-2.3,2.5-3.9,4.8-3.5&#10;&#9;&#9;c0,0,0,0,0,0l15.8,2.5c2.3,0.4,3.8,2.5,3.5,4.8l-1.1,6.8C289.3,210.7,287.5,212.2,285.4,212.2L285.4,212.2z M285,210.7&#10;&#9;&#9;c0.7,0.1,1.5-0.1,2-0.5c0.6-0.4,1-1.1,1.1-1.8l1.1-6.8c0.2-1.5-0.8-2.9-2.3-3.1l-15.8-2.5c-0.7-0.1-1.4,0.1-2,0.5&#10;&#9;&#9;c-0.6,0.4-1,1.1-1.1,1.8l-1.1,6.7c-0.2,1.5,0.8,2.9,2.3,3.2L285,210.7z"/>
	<path class="st1_social-media-1-49" d="M313.6,216.6c-0.2,0-0.4,0-0.7-0.1l0,0l-15.8-2.5c-2.3-0.4-3.8-2.5-3.5-4.8l1.1-6.8c0.2-1.1,0.8-2.1,1.7-2.7&#10;&#9;&#9;c0.9-0.7,2-0.9,3.1-0.8l15.8,2.5c2.3,0.4,3.8,2.5,3.5,4.8l-1.1,6.8C317.4,215.1,315.6,216.6,313.6,216.6L313.6,216.6z M313.1,215.2&#10;&#9;&#9;c0.7,0.1,1.5-0.1,2-0.5c0.6-0.4,1-1.1,1.1-1.8l1.1-6.8c0.2-1.5-0.8-2.9-2.3-3.1l-15.8-2.5c-1.5-0.2-2.9,0.8-3.1,2.3c0,0,0,0,0,0&#10;&#9;&#9;l-1.1,6.8c-0.2,1.5,0.8,2.9,2.3,3.2L313.1,215.2z"/>
	<path class="st1_social-media-1-49" d="M295.4,203.4c-0.2,0-0.4-0.1-0.5-0.2c-2.5-2.4-4.5-0.9-4.5-0.8c-0.3,0.2-0.8,0.2-1-0.1c-0.2-0.3-0.2-0.8,0.1-1&#10;&#9;&#9;c1-0.8,3.7-1.7,6.4,0.9c0.3,0.3,0.3,0.7,0,1C295.8,203.3,295.6,203.3,295.4,203.4z"/>
	<path class="st1_social-media-1-49" d="M285.6,234c-3.7-0.1-7.4-0.7-11-1.9c-0.6-0.2-1.3-0.4-1.5-0.4c-0.3,0.1-0.6-0.1-0.7-0.3&#10;&#9;&#9;c-0.2-0.3-0.2-0.8,0.2-1c0,0,0,0,0,0c0.4-0.3,0.8-0.1,2.5,0.3c5.5,1.6,20.3,5.8,24.9-8.4c0.1-0.4,0.5-0.6,0.9-0.5&#10;&#9;&#9;c0.4,0.1,0.6,0.5,0.5,0.9c0,0,0,0.1,0,0.1C298.3,231.8,291.7,234,285.6,234z"/>
	<path class="st1_social-media-1-49" d="M152.5,293.5c-0.4,0-0.7-0.3-0.7-0.7c-0.5-7.2-6.1-23-6.2-23.1c-0.1-0.4,0.1-0.8,0.4-0.9&#10;&#9;&#9;c0.4-0.1,0.8,0.1,0.9,0.4l0,0c0.2,0.7,5.7,16.1,6.3,23.5C153.3,293.2,153,293.5,152.5,293.5L152.5,293.5z"/>
	<polygon class="st2_social-media-1-49" points="239.5,303.5 211.8,296.8 209.4,303.5 237.5,311 &#9;"/>
	<path class="st1_social-media-1-49" d="M237.5,311.7c-0.1,0-0.1,0-0.2,0l-28.1-7.5c-0.2-0.1-0.4-0.2-0.4-0.4c-0.1-0.2-0.1-0.4,0-0.6l2.4-6.7&#10;&#9;&#9;c0.1-0.3,0.5-0.5,0.9-0.5l27.7,6.7c0.2,0,0.4,0.2,0.4,0.3c0.1,0.2,0.1,0.4,0.1,0.6l-2,7.5c-0.1,0.2-0.2,0.3-0.3,0.4&#10;&#9;&#9;C237.8,311.7,237.6,311.7,237.5,311.7z M210.4,303l26.6,7.1l1.6-6.1l-26.4-6.4L210.4,303z"/>
</g>
<g id="Insta_Frame_social-media-1-49">
	<path class="st2_social-media-1-49" d="M78.2,95.4l24.3,300l310.1-25.1l-24.3-300L78.2,95.4z M384.2,312.4l-263,21.3l-13.1-162.1l263-21.3&#10;&#9;&#9;L384.2,312.4z"/>
	<path class="st1_social-media-1-49" d="M102.5,396.1c-0.2,0-0.3-0.1-0.4-0.2c-0.1-0.1-0.2-0.3-0.2-0.5l-24.3-300c0-0.4,0.3-0.7,0.6-0.8l310.1-25.1&#10;&#9;&#9;c0.2,0,0.4,0,0.5,0.2c0.1,0.1,0.2,0.3,0.2,0.5l24.3,300c0,0.4-0.2,0.7-0.6,0.8c0,0,0,0,0,0L102.5,396.1L102.5,396.1z M79,96.1&#10;&#9;&#9;l24.2,298.6l308.7-25L387.7,71.1L79,96.1z M121.2,334.4c-0.2,0-0.3-0.1-0.5-0.2c-0.1-0.1-0.2-0.3-0.2-0.5l-13.1-162.1&#10;&#9;&#9;c0-0.4,0.3-0.7,0.6-0.8l263-21.3c0.2,0,0.4,0.1,0.5,0.2c0.1,0.1,0.2,0.3,0.2,0.5l13.1,162.1c0,0.4-0.3,0.7-0.6,0.8L121.2,334.4&#10;&#9;&#9;L121.2,334.4z M108.8,172.2l13,160.7l261.5-21.2l-13-160.8L108.8,172.2z"/>
	<circle class="st3_social-media-1-49" cx="116.7" cy="113.5" r="13.2"/>
	<path class="st3_social-media-1-49" d="M107.6,135.9c-0.4,0-0.7-0.3-0.7-0.7c0-0.4,0.3-0.7,0.7-0.7l258.2-20.9c0.4,0,0.7,0.3,0.8,0.6&#10;&#9;&#9;c0,0.4-0.3,0.7-0.6,0.8L107.6,135.9L107.6,135.9z"/>
	<path class="st3_social-media-1-49" d="M109,152.8c-0.4,0-0.7-0.3-0.7-0.7s0.3-0.7,0.7-0.7l0,0l204-16.5c0.4,0,0.7,0.3,0.8,0.6c0,0.4-0.3,0.7-0.6,0.8&#10;&#9;&#9;L109,152.8L109,152.8z"/>
	
		<ellipse transform="matrix(7.088905e-02 -0.9975 0.9975 7.088905e-02 -228.2328 472.0916)" class="st0_social-media-1-49 targetColor" cx="139.3" cy="358.6" rx="16.8" ry="16.8" style="fill: rgb(104, 225, 253);"/>
	<circle class="st0_social-media-1-49 targetColor" cx="177.1" cy="355.5" r="16.8" style="fill: rgb(104, 225, 253);"/>
	<path class="st2_social-media-1-49" d="M129.9,355.8l2.7-0.2c0.6,0,1.1,0.4,1.1,0.9l0.6,7.9c0,0.6-0.4,1.1-0.9,1.1l-2.7,0.2c-0.6,0-1.1-0.4-1.1-0.9&#10;&#9;&#9;l-0.6-7.9C128.9,356.3,129.3,355.8,129.9,355.8z"/>
	<path class="st2_social-media-1-49" d="M136.3,357l0.7,8.2l11.6-1c0,0,1.9-9.8,0.3-10.4s-6.2,0-6.2,0s1.7-6.8-0.1-7S138.6,353.1,136.3,357z"/>
	<path class="st2_social-media-1-49" d="M176.8,351.1l0.2-0.4c0.5-0.9,1.3-1.6,2.2-2.1c0.7-0.4,1.5-0.6,2.3-0.6c2.3,0,4.2,1.5,4.7,3.7&#10;&#9;&#9;c0.1,0.6,0.2,1.3,0.2,2c0,1.6-0.6,3.3-1.6,4.5c-0.6,0.8-1.3,1.6-2,2.3l-3.7,3.8c-0.4,0.4-0.7,0.8-1.1,1.2l-0.1,0.1l-0.3-0.2&#10;&#9;&#9;c-1.4-1.1-2.8-2.2-4.3-3.2c-0.9-0.7-1.9-1.4-2.8-2.1c-0.6-0.5-1.2-1.2-1.7-1.8c-0.5-0.7-0.9-1.6-1.1-2.4c-0.2-0.7-0.2-1.3-0.3-2&#10;&#9;&#9;c-0.1-2,1-3.8,2.8-4.6c1.8-0.8,3.9-0.5,5.4,0.8C176.2,350.3,176.5,350.6,176.8,351.1C176.8,351,176.8,351.1,176.8,351.1z"/>
	
		<rect x="138.8" y="103" transform="matrix(0.9967 -8.072083e-02 8.072083e-02 0.9967 -8.086 14.3579)" class="st3_social-media-1-49" width="69.4" height="8.4"/>
	<path class="st3_social-media-1-49" d="M206.4,353.8c-0.4,0-0.7-0.3-0.7-0.7c0-0.4,0.3-0.7,0.7-0.7l49.6-4c0.4,0,0.7,0.3,0.8,0.6&#10;&#9;&#9;c0,0.4-0.3,0.7-0.6,0.8l0,0L206.4,353.8L206.4,353.8z"/>
</g>
<g id="Like_emoji_social-media-1-49">
	<path class="st3_social-media-1-49" d="M145.2,223c-1.3,0-2.4-0.8-2.8-2l-4.7-16c-0.4-1.5,0.4-3.1,1.9-3.6l5.6-1.6c1.5-0.4,3.1,0.4,3.6,1.9l4.7,16&#10;&#9;&#9;c0.2,0.7,0.1,1.5-0.2,2.2c-0.4,0.7-1,1.2-1.7,1.4l0,0l-5.6,1.6C145.8,223,145.5,223,145.2,223z M146.1,201c-0.1,0-0.3,0-0.4,0.1&#10;&#9;&#9;l-5.6,1.6c-0.8,0.2-1.2,1-1,1.8l4.7,16c0.2,0.8,1,1.2,1.8,1c0,0,0,0,0,0l5.6-1.6c0.4-0.1,0.7-0.4,0.9-0.7c0.2-0.3,0.2-0.7,0.1-1.1&#10;&#9;&#9;l-4.7-16C147.3,201.4,146.8,201,146.1,201z M151.5,220.5L151.5,220.5z"/>
	<path class="st3_social-media-1-49" d="M158.6,219.2c-0.1,0-0.2,0-0.3-0.1c-0.2-0.1-0.3-0.2-0.3-0.4l-4.9-16.7c0-0.1,0-0.3,0-0.4c1-3,1.9-6.6,2.7-10&#10;&#9;&#9;c1.9-7.8,3.3-14,6.5-14.2c0.7,0,1.3,0.2,1.8,0.7c2.4,2.3,2.4,10.5,2.3,13.5c2.5-0.8,9.2-2.8,12.2-2.4c1,0.1,4.1,2.1,4.4,22.3&#10;&#9;&#9;c0,0.3-0.2,0.6-0.5,0.7l-23.7,7C158.7,219.2,158.7,219.2,158.6,219.2z M154.4,201.8l4.7,15.8l22.5-6.6c-0.2-9.8-1.5-20.1-3.2-20.4&#10;&#9;&#9;c-3.3-0.5-12.4,2.6-12.5,2.6c-0.2,0.1-0.5,0-0.6-0.1c-0.2-0.1-0.3-0.4-0.3-0.6c0.1-3.1,0.1-11.6-1.9-13.5c-0.2-0.2-0.4-0.3-0.7-0.3&#10;&#9;&#9;c-2.2,0.1-3.8,7-5.2,13.1C156.3,195.2,155.4,198.8,154.4,201.8L154.4,201.8z"/>
	<path class="st3_social-media-1-49" d="M204.3,235.8c-1.7,0-3.4-0.2-5-0.5c-5.9-1.2-11-4.7-13.5-9.3c-0.2-0.3-0.1-0.8,0.2-1s0.8-0.1,1,0.2&#10;&#9;&#9;c0,0,0.1,0.1,0.1,0.1c2.4,4.3,7.1,7.6,12.6,8.6c4.7,0.9,10,0.4,15.7-1.6c0.4-0.1,0.8,0.1,0.9,0.4c0,0,0,0,0,0&#10;&#9;&#9;c0.1,0.4-0.1,0.8-0.4,0.9C212.1,235,208.2,235.7,204.3,235.8z"/>
</g>
<g id="Hands_social-media-1-49">
	<path class="st2_social-media-1-49" d="M419.8,209.9c3.5-2.3,7.2-33-3.2-40.1c-7.5-5.2-14.7-10.9-21.6-16.9l1,12.2c0,0-10.9-3.9-12.5,1.4&#10;&#9;&#9;s0.9,12.8,14.5,23.4l0.8,10.1L419.8,209.9z"/>
	<path class="st1_social-media-1-49" d="M419.8,210.6c-0.1,0-0.2,0-0.3-0.1l-21-9.8c-0.2-0.1-0.4-0.3-0.4-0.6l-0.8-9.8c-11.6-9.2-16.5-17.2-14.5-24&#10;&#9;&#9;c0.3-1.1,1.1-2.1,2.1-2.6c3-1.5,8-0.3,10.2,0.3l-0.9-11.1c0-0.3,0.1-0.6,0.4-0.7c0.3-0.1,0.6-0.1,0.8,0.1c6.9,6,14,11.6,21.5,16.8&#10;&#9;&#9;c6.3,4.3,7.2,15.8,7.2,22.3c0,7.9-1.6,17.4-3.9,18.9C420.1,210.6,420,210.7,419.8,210.6z M399.5,199.6l20.2,9.4&#10;&#9;&#9;c1.3-1.6,3-8.7,3-17.5c0.1-10.6-2.3-18.3-6.5-21.1c-7-4.9-13.8-10.2-20.3-15.7l0.8,10.4c0,0.4-0.2,0.8-0.6,0.8&#10;&#9;&#9;c-0.1,0-0.2,0-0.4-0.1c-0.1,0-6.9-2.4-10.1-0.8c-0.7,0.3-1.2,0.9-1.4,1.7c-1.8,6.2,3,13.8,14.2,22.7c0.2,0.1,0.3,0.3,0.3,0.5&#10;&#9;&#9;L399.5,199.6z"/>
	<path class="st2_social-media-1-49" d="M75.8,191.5c-0.3,1.6-0.1,3.2,0.5,4.7c2.1,6.6,17.4,31.7,17,12.1C93.1,202.5,77.8,182.9,75.8,191.5z"/>
	<path class="st1_social-media-1-49" d="M90.7,216.4c-5.2,0-13.8-15.6-15.2-20c-0.6-1.6-0.8-3.4-0.5-5.1l0,0c0.6-2.6,2.3-2.8,3.2-2.7&#10;&#9;&#9;c5.3,0.6,15.6,14.4,15.7,19.7c0.1,5.1-0.8,7.7-2.9,8C91,216.4,90.8,216.4,90.7,216.4z M76.5,191.7c-0.2,1.5,0,3,0.5,4.3&#10;&#9;&#9;c1.7,5.5,10.5,19.5,13.9,18.9c0.5-0.1,1.8-0.9,1.7-6.6c-0.1-4.4-10-17.8-14.4-18.3C77.6,190,76.9,190.1,76.5,191.7L76.5,191.7z"/>
	<path class="st2_social-media-1-49" d="M88.3,206.7c-0.1-0.1-0.2-0.1-0.4-0.2c-10.7-4.9-9.5,14.2-8.5,19.8c1.1,6.1,4.4,20.8,13.6,14.6&#10;&#9;&#9;C102.9,234.2,98.3,211.8,88.3,206.7z"/>
	<path class="st1_social-media-1-49" d="M88.8,243.2c-0.7,0-1.5-0.2-2.1-0.4c-3.6-1.5-6.3-7-8-16.3c-0.8-4.1-1.8-16.8,3-20.4c1.7-1.3,3.9-1.4,6.5-0.1&#10;&#9;&#9;l0.4,0.2c5.7,2.9,10,11.1,10.6,20c0.4,7-1.7,12.6-5.8,15.4C92.1,242.5,90.5,243.1,88.8,243.2z M84.7,206.4c-0.8,0-1.5,0.2-2.2,0.7&#10;&#9;&#9;c-3.8,3-3.3,14.3-2.4,19.1c2,10.9,5,14.3,7.1,15.2c1.6,0.7,3.3,0.3,5.3-1c3.7-2.5,5.6-7.7,5.2-14.1c-0.5-8.3-4.7-16.2-9.8-18.9l0,0&#10;&#9;&#9;l-0.3-0.2C86.7,206.8,85.7,206.5,84.7,206.4L84.7,206.4z"/>
</g>
</svg>